# xmcd CD database file
# Copyright (C) 1993-1998 Ti Kan
#
# Track frame offsets:
#	150
#	25765
#	37458
#	50503
#	59530
#	72098
#	90323
#	102768
#	121400
#	132815
#	144835
#	162280
#	192240
#	203680
#	218363
#	235130
#
# Disc length: 3486 seconds
#
# Revision: 1
# Processed by: cddbd v1.4b41PL1 Copyright (c) Steve Scherf et al.
# Submitted via: CDValet v3.01 - Copyright (c) 1997 Greg Leichner
#
DISCID=d80d9c10
DTITLE=Signature Licks - Stevie Ray Vaughan
DYEAR=1900
DGENRE=
TTITLE0=Look At Little Sister (2nd and 3rd verses)
TTITLE1=Look At Little Sister (guitar solo)
TTITLE2=The House Is Rockin' (intro, chorus and verse)
TTITLE3=The House Is Rockin' (guitar solo)
TTITLE4=Pride And Joy (intro)
TTITLE5=Pride And Joy (guitar solo)
TTITLE6=Cold Shot (intro and verse)
TTITLE7=Cold Shot (guitar solo)
TTITLE8=Stang's Swang (head)
TTITLE9=Stang's Swang (guitar solo)
TTITLE10=Leave My Girl Alone (intro and 1st verse)
TTITLE11=Leave My Girl Alone (guitar solo)
TTITLE12=Come On (Part III) (intro and verse)
TTITLE13=Come On (Part III) (guitar solo, 1st 2 choruses)
TTITLE14=Lenny (intro and head)
TTITLE15=Riviera Paradise (intro and head)
EXTD=(c) 1991 Hal Leonard Publishing
EXTT0=
EXTT1=
EXTT2=
EXTT3=
EXTT4=
EXTT5=
EXTT6=
EXTT7=
EXTT8=
EXTT9=
EXTT10=
EXTT11=
EXTT12=
EXTT13=
EXTT14=
EXTT15=
PLAYORDER=
